# Tiled2Unity generated file. Do not modify by hand.
# Wavefront file for 'LevelTwo_mesh_0002.obj'

# Vertices (Count = 120)
v -48 -110 0
v -49 -110 0
v -49 -109 0
v -48 -109 0
v -49 -110 0
v -50 -110 0
v -50 -109 0
v -49 -109 0
v -50 -110 0
v -51 -110 0
v -51 -109 0
v -50 -109 0
v -51 -110 0
v -52 -110 0
v -52 -109 0
v -51 -109 0
v -70 -113 0
v -71 -113 0
v -71 -112 0
v -70 -112 0
v -71 -113 0
v -72 -113 0
v -72 -112 0
v -71 -112 0
v -72 -113 0
v -73 -113 0
v -73 -112 0
v -72 -112 0
v -73 -113 0
v -74 -113 0
v -74 -112 0
v -73 -112 0
v -94 -116 0
v -95 -116 0
v -95 -115 0
v -94 -115 0
v -95 -116 0
v -96 -116 0
v -96 -115 0
v -95 -115 0
v -96 -116 0
v -97 -116 0
v -97 -115 0
v -96 -115 0
v -97 -116 0
v -98 -116 0
v -98 -115 0
v -97 -115 0
v -41 -117 0
v -42 -117 0
v -42 -116 0
v -41 -116 0
v -42 -117 0
v -43 -117 0
v -43 -116 0
v -42 -116 0
v -45 -117 0
v -46 -117 0
v -46 -116 0
v -45 -116 0
v -46 -117 0
v -47 -117 0
v -47 -116 0
v -46 -116 0
v -53 -117 0
v -54 -117 0
v -54 -116 0
v -53 -116 0
v -54 -117 0
v -55 -117 0
v -55 -116 0
v -54 -116 0
v -114 -125 0
v -115 -125 0
v -115 -124 0
v -114 -124 0
v -115 -125 0
v -116 -125 0
v -116 -124 0
v -115 -124 0
v -116 -125 0
v -117 -125 0
v -117 -124 0
v -116 -124 0
v -117 -125 0
v -118 -125 0
v -118 -124 0
v -117 -124 0
v -70 -128 0
v -71 -128 0
v -71 -127 0
v -70 -127 0
v -71 -128 0
v -72 -128 0
v -72 -127 0
v -71 -127 0
v -72 -128 0
v -73 -128 0
v -73 -127 0
v -72 -127 0
v -73 -128 0
v -74 -128 0
v -74 -127 0
v -73 -127 0
v -106 -128 0
v -107 -128 0
v -107 -127 0
v -106 -127 0
v -107 -128 0
v -108 -128 0
v -108 -127 0
v -107 -127 0
v -108 -128 0
v -109 -128 0
v -109 -127 0
v -108 -127 0
v -109 -128 0
v -110 -128 0
v -110 -127 0
v -109 -127 0

# Texture cooridinates (Count = 4)
vt 0.5514223 0.9252137
vt 0.6280087 0.9252137
vt 0.6280087 1
vt 0.5514223 1

# Normal
vn 0 0 -1

# Mesh description
g LevelTwo_mesh_0002

# Faces
f 1/1/1 2/2/1 3/3/1 4/4/1
f 5/1/1 6/2/1 7/3/1 8/4/1
f 9/1/1 10/2/1 11/3/1 12/4/1
f 13/1/1 14/2/1 15/3/1 16/4/1
f 17/1/1 18/2/1 19/3/1 20/4/1
f 21/1/1 22/2/1 23/3/1 24/4/1
f 25/1/1 26/2/1 27/3/1 28/4/1
f 29/1/1 30/2/1 31/3/1 32/4/1
f 33/1/1 34/2/1 35/3/1 36/4/1
f 37/1/1 38/2/1 39/3/1 40/4/1
f 41/1/1 42/2/1 43/3/1 44/4/1
f 45/1/1 46/2/1 47/3/1 48/4/1
f 49/1/1 50/2/1 51/3/1 52/4/1
f 53/1/1 54/2/1 55/3/1 56/4/1
f 57/1/1 58/2/1 59/3/1 60/4/1
f 61/1/1 62/2/1 63/3/1 64/4/1
f 65/1/1 66/2/1 67/3/1 68/4/1
f 69/1/1 70/2/1 71/3/1 72/4/1
f 73/1/1 74/2/1 75/3/1 76/4/1
f 77/1/1 78/2/1 79/3/1 80/4/1
f 81/1/1 82/2/1 83/3/1 84/4/1
f 85/1/1 86/2/1 87/3/1 88/4/1
f 89/1/1 90/2/1 91/3/1 92/4/1
f 93/1/1 94/2/1 95/3/1 96/4/1
f 97/1/1 98/2/1 99/3/1 100/4/1
f 101/1/1 102/2/1 103/3/1 104/4/1
f 105/1/1 106/2/1 107/3/1 108/4/1
f 109/1/1 110/2/1 111/3/1 112/4/1
f 113/1/1 114/2/1 115/3/1 116/4/1
f 117/1/1 118/2/1 119/3/1 120/4/1

