# Tiled2Unity generated file. Do not modify by hand.
# Wavefront file for 'LevelOne_mesh_0002.obj'

# Vertices (Count = 236)
v -40 -74 0
v -41 -74 0
v -41 -73 0
v -40 -73 0
v -41 -74 0
v -42 -74 0
v -42 -73 0
v -41 -73 0
v -42 -74 0
v -43 -74 0
v -43 -73 0
v -42 -73 0
v -43 -74 0
v -44 -74 0
v -44 -73 0
v -43 -73 0
v -45 -78 0
v -46 -78 0
v -46 -77 0
v -45 -77 0
v -46 -78 0
v -47 -78 0
v -47 -77 0
v -46 -77 0
v -47 -78 0
v -48 -78 0
v -48 -77 0
v -47 -77 0
v -48 -78 0
v -49 -78 0
v -49 -77 0
v -48 -77 0
v -40 -82 0
v -41 -82 0
v -41 -81 0
v -40 -81 0
v -41 -82 0
v -42 -82 0
v -42 -81 0
v -41 -81 0
v -42 -82 0
v -43 -82 0
v -43 -81 0
v -42 -81 0
v -43 -82 0
v -44 -82 0
v -44 -81 0
v -43 -81 0
v -45 -86 0
v -46 -86 0
v -46 -85 0
v -45 -85 0
v -46 -86 0
v -47 -86 0
v -47 -85 0
v -46 -85 0
v -47 -86 0
v -48 -86 0
v -48 -85 0
v -47 -85 0
v -48 -86 0
v -49 -86 0
v -49 -85 0
v -48 -85 0
v -7 -89 0
v -8 -89 0
v -8 -88 0
v -7 -88 0
v -8 -89 0
v -9 -89 0
v -9 -88 0
v -8 -88 0
v -6 -90 0
v -7 -90 0
v -7 -89 0
v -6 -89 0
v -7 -90 0
v -8 -90 0
v -8 -89 0
v -7 -89 0
v -8 -90 0
v -9 -90 0
v -9 -89 0
v -8 -89 0
v -40 -90 0
v -41 -90 0
v -41 -89 0
v -40 -89 0
v -41 -90 0
v -42 -90 0
v -42 -89 0
v -41 -89 0
v -42 -90 0
v -43 -90 0
v -43 -89 0
v -42 -89 0
v -43 -90 0
v -44 -90 0
v -44 -89 0
v -43 -89 0
v -5 -91 0
v -6 -91 0
v -6 -90 0
v -5 -90 0
v -6 -91 0
v -7 -91 0
v -7 -90 0
v -6 -90 0
v -4 -92 0
v -5 -92 0
v -5 -91 0
v -4 -91 0
v -5 -92 0
v -6 -92 0
v -6 -91 0
v -5 -91 0
v -3 -93 0
v -4 -93 0
v -4 -92 0
v -3 -92 0
v -4 -93 0
v -5 -93 0
v -5 -92 0
v -4 -92 0
v -3 -94 0
v -4 -94 0
v -4 -93 0
v -3 -93 0
v -45 -94 0
v -46 -94 0
v -46 -93 0
v -45 -93 0
v -46 -94 0
v -47 -94 0
v -47 -93 0
v -46 -93 0
v -47 -94 0
v -48 -94 0
v -48 -93 0
v -47 -93 0
v -48 -94 0
v -49 -94 0
v -49 -93 0
v -48 -93 0
v -2 -95 0
v -3 -95 0
v -3 -94 0
v -2 -94 0
v -9 -95 0
v -10 -95 0
v -10 -94 0
v -9 -94 0
v -10 -95 0
v -11 -95 0
v -11 -94 0
v -10 -94 0
v -22 -95 0
v -23 -95 0
v -23 -94 0
v -22 -94 0
v -23 -95 0
v -24 -95 0
v -24 -94 0
v -23 -94 0
v -24 -95 0
v -25 -95 0
v -25 -94 0
v -24 -94 0
v -25 -95 0
v -26 -95 0
v -26 -94 0
v -25 -94 0
v -28 -98 0
v -29 -98 0
v -29 -97 0
v -28 -97 0
v -29 -98 0
v -30 -98 0
v -30 -97 0
v -29 -97 0
v -30 -98 0
v -31 -98 0
v -31 -97 0
v -30 -97 0
v -31 -98 0
v -32 -98 0
v -32 -97 0
v -31 -97 0
v -40 -98 0
v -41 -98 0
v -41 -97 0
v -40 -97 0
v -41 -98 0
v -42 -98 0
v -42 -97 0
v -41 -97 0
v -42 -98 0
v -43 -98 0
v -43 -97 0
v -42 -97 0
v -43 -98 0
v -44 -98 0
v -44 -97 0
v -43 -97 0
v -54 -101 0
v -55 -101 0
v -55 -100 0
v -54 -100 0
v -55 -101 0
v -56 -101 0
v -56 -100 0
v -55 -100 0
v -56 -101 0
v -57 -101 0
v -57 -100 0
v -56 -100 0
v -57 -101 0
v -58 -101 0
v -58 -100 0
v -57 -100 0
v -54 -105 0
v -55 -105 0
v -55 -104 0
v -54 -104 0
v -55 -105 0
v -56 -105 0
v -56 -104 0
v -55 -104 0
v -56 -105 0
v -57 -105 0
v -57 -104 0
v -56 -104 0
v -57 -105 0
v -58 -105 0
v -58 -104 0
v -57 -104 0

# Texture cooridinates (Count = 16)
vt 0.6301969 0.5405983
vt 0.7067834 0.5405983
vt 0.7067834 0.6153846
vt 0.6301969 0.6153846
vt 0.6301969 0.6175214
vt 0.7067834 0.6175214
vt 0.7067834 0.6923077
vt 0.6301969 0.6923077
vt 0.6301969 0.6944444
vt 0.7067834 0.6944444
vt 0.7067834 0.7692308
vt 0.6301969 0.7692308
vt 0 0.07905984
vt 0.07658643 0.07905984
vt 0.07658643 0.1538461
vt 0 0.1538461

# Normal
vn 0 0 -1

# Mesh description
g LevelOne_mesh_0002

# Faces
f 1/1/1 2/2/1 3/3/1 4/4/1
f 5/5/1 6/6/1 7/7/1 8/8/1
f 9/5/1 10/6/1 11/7/1 12/8/1
f 13/9/1 14/10/1 15/11/1 16/12/1
f 17/1/1 18/2/1 19/3/1 20/4/1
f 21/5/1 22/6/1 23/7/1 24/8/1
f 25/5/1 26/6/1 27/7/1 28/8/1
f 29/9/1 30/10/1 31/11/1 32/12/1
f 33/1/1 34/2/1 35/3/1 36/4/1
f 37/5/1 38/6/1 39/7/1 40/8/1
f 41/5/1 42/6/1 43/7/1 44/8/1
f 45/9/1 46/10/1 47/11/1 48/12/1
f 49/1/1 50/2/1 51/3/1 52/4/1
f 53/5/1 54/6/1 55/7/1 56/8/1
f 57/5/1 58/6/1 59/7/1 60/8/1
f 61/9/1 62/10/1 63/11/1 64/12/1
f 65/13/1 66/14/1 67/15/1 68/16/1
f 69/13/1 70/14/1 71/15/1 72/16/1
f 73/13/1 74/14/1 75/15/1 76/16/1
f 77/13/1 78/14/1 79/15/1 80/16/1
f 81/13/1 82/14/1 83/15/1 84/16/1
f 85/1/1 86/2/1 87/3/1 88/4/1
f 89/5/1 90/6/1 91/7/1 92/8/1
f 93/5/1 94/6/1 95/7/1 96/8/1
f 97/9/1 98/10/1 99/11/1 100/12/1
f 101/13/1 102/14/1 103/15/1 104/16/1
f 105/13/1 106/14/1 107/15/1 108/16/1
f 109/13/1 110/14/1 111/15/1 112/16/1
f 113/13/1 114/14/1 115/15/1 116/16/1
f 117/13/1 118/14/1 119/15/1 120/16/1
f 121/13/1 122/14/1 123/15/1 124/16/1
f 125/13/1 126/14/1 127/15/1 128/16/1
f 129/1/1 130/2/1 131/3/1 132/4/1
f 133/5/1 134/6/1 135/7/1 136/8/1
f 137/5/1 138/6/1 139/7/1 140/8/1
f 141/9/1 142/10/1 143/11/1 144/12/1
f 145/13/1 146/14/1 147/15/1 148/16/1
f 149/13/1 150/14/1 151/15/1 152/16/1
f 153/13/1 154/14/1 155/15/1 156/16/1
f 157/1/1 158/2/1 159/3/1 160/4/1
f 161/5/1 162/6/1 163/7/1 164/8/1
f 165/5/1 166/6/1 167/7/1 168/8/1
f 169/9/1 170/10/1 171/11/1 172/12/1
f 173/1/1 174/2/1 175/3/1 176/4/1
f 177/5/1 178/6/1 179/7/1 180/8/1
f 181/5/1 182/6/1 183/7/1 184/8/1
f 185/9/1 186/10/1 187/11/1 188/12/1
f 189/1/1 190/2/1 191/3/1 192/4/1
f 193/5/1 194/6/1 195/7/1 196/8/1
f 197/5/1 198/6/1 199/7/1 200/8/1
f 201/9/1 202/10/1 203/11/1 204/12/1
f 205/5/1 206/6/1 207/7/1 208/8/1
f 209/5/1 210/6/1 211/7/1 212/8/1
f 213/5/1 214/6/1 215/7/1 216/8/1
f 217/5/1 218/6/1 219/7/1 220/8/1
f 221/5/1 222/6/1 223/7/1 224/8/1
f 225/5/1 226/6/1 227/7/1 228/8/1
f 229/5/1 230/6/1 231/7/1 232/8/1
f 233/5/1 234/6/1 235/7/1 236/8/1

